<?xml version="1.0" encoding="utf-8"?>
<!-- Generator: Adobe Illustrator 21.0.0, SVG Export Plug-In . SVG Version: 6.00 Build 0)  -->
<svg version="1.1" id="Capa_1" xmlns="http://www.w3.org/2000/svg" xmlns:xlink="http://www.w3.org/1999/xlink" x="0px" y="0px"
	 viewBox="0 0 64 64" style="enable-background:new 0 0 64 64;" xml:space="preserve">
<path d="M45,25c3.9,0,7,3.1,7,7c0,3.9-3.1,7-7,7H19c-3.9,0-7-3.1-7-7c0-3.9,3.1-7,7-7H45 M45,17H19c-8.3,0-15,6.8-15,15v0
	c0,8.2,6.8,15,15,15h26c8.3,0,15-6.8,15-15v0C60,23.8,53.3,17,45,17L45,17z"/>
</svg>
