<?xml version="1.0" encoding="utf-8"?>
<!-- Generator: Adobe Illustrator 21.0.0, SVG Export Plug-In . SVG Version: 6.00 Build 0)  -->
<svg version="1.1" id="Capa_1" xmlns="http://www.w3.org/2000/svg" xmlns:xlink="http://www.w3.org/1999/xlink" x="0px" y="0px"
	 viewBox="0 0 64 64" style="enable-background:new 0 0 64 64;" xml:space="preserve">
<g>
	<path d="M40,29H24c-1.6,0-3,1.4-3,3s1.4,3,3,3h16c1.6,0,3-1.4,3-3S41.6,29,40,29z"/>
	<path d="M32,4C16.5,4,4,16.5,4,32c0,15.5,12.5,28,28,28s28-12.5,28-28C60,16.5,47.5,4,32,4z M40,41H24c-4.9,0-9-4-9-9s4.1-9,9-9h16
		c4.9,0,9,4,9,9S44.9,41,40,41z"/>
</g>
</svg>
