<?xml version="1.0" encoding="utf-8"?>
<!-- Generator: Adobe Illustrator 21.0.0, SVG Export Plug-In . SVG Version: 6.00 Build 0)  -->
<svg version="1.1" id="Capa_1" xmlns="http://www.w3.org/2000/svg" xmlns:xlink="http://www.w3.org/1999/xlink" x="0px" y="0px"
	 viewBox="0 0 64 64" style="enable-background:new 0 0 64 64;" xml:space="preserve">
<path d="M31.3,8c1.2,0,2.5,0,3.7,0.1l0.1,0c9,0.4,13.1,0.6,15.9,3.4c4.3,4.3,4,12.1,3.6,20.4c-0.4,8.1-0.7,15-5.4,19.6
	c-4,3.9-9.2,4.2-13.4,4.4c-0.5,0-1,0-1.5,0c-6.5,0-11.5-2.4-13.9-3.8c-2.3-1.4-8.5-5-10.8-11.8C9.2,38.8,9.2,36,9.2,31
	c-0.1-9.6,0-14,1.9-16.8c1.6-2.4,4-4.1,7.1-5.2C22.5,8.3,26.9,8,31.3,8 M31.3,6c-5.6,0-10.2,0.5-13.6,1.1c-2.1,0.7-5.7,2.3-8.2,6
	C7.1,16.5,7.1,21.4,7.2,31c0,5.4,0.1,8.1,0.7,10c2.4,7.6,9.1,11.5,11.6,13c2,1.2,7.5,4,14.9,4c0.5,0,1,0,1.6,0
	c4.3-0.2,10.1-0.6,14.7-5c5.3-5.2,5.6-12.7,6-21c0.4-8.6,0.8-17-4.2-21.9c-3.4-3.4-8.1-3.6-17.4-4C33.8,6,32.5,6,31.3,6L31.3,6z"/>
<g>
	<path d="M21.4,32.2v7.7h-4.2v-20H23c2.7,0,4.7,0.5,6,1.5c1.3,1,2,2.5,2,4.5c0,1.2-0.3,2.2-1,3.1s-1.6,1.6-2.7,2.2
		c3,4.5,5,7.4,5.9,8.7h-4.7l-4.8-7.7H21.4z M21.4,28.8h1.4c1.3,0,2.3-0.2,3-0.7c0.6-0.4,1-1.1,1-2.1c0-0.9-0.3-1.6-1-2
		c-0.7-0.4-1.7-0.6-3-0.6h-1.3V28.8z"/>
	<path d="M43.4,39.9h-4.2V23.4h-5.4v-3.5h15.1v3.5h-5.4V39.9z"/>
</g>
</svg>
