<?xml version="1.0" encoding="utf-8"?>
<!-- Generator: Adobe Illustrator 21.0.0, SVG Export Plug-In . SVG Version: 6.00 Build 0)  -->
<svg version="1.1" id="Capa_1" xmlns="http://www.w3.org/2000/svg" xmlns:xlink="http://www.w3.org/1999/xlink" x="0px" y="0px"
	 viewBox="0 0 64 64" style="enable-background:new 0 0 64 64;" xml:space="preserve">
<path d="M44.6,18.6l-1.9,1.6c3.8,0.9,7.2,2.2,10.1,4C58.1,27.5,61,31.6,61,36c0,4.4-2.9,8.5-8.1,11.7C47.3,51.1,39.9,53,32,53
	s-15.3-1.9-20.9-5.3C5.9,44.5,3,40.4,3,36c0-4.4,2.9-8.5,8.1-11.7c2.9-1.8,6.4-3.1,10.1-4l-1.9-1.6C8.6,21.6,1,28.3,1,36
	c0,10.5,13.9,19,31,19s31-8.5,31-19C63,28.3,55.4,21.6,44.6,18.6z"/>
<polygon points="32,22 19,11.1 22.7,8 32,15.8 41.3,8 45,11.1 "/>
<path d="M32,28c7.6,0,14,3.7,14,8s-6.4,8-14,8s-14-3.7-14-8S24.4,28,32,28 M32,26c-8.8,0-16,4.5-16,10s7.2,10,16,10s16-4.5,16-10
	S40.8,26,32,26L32,26z"/>
</svg>
