<?xml version="1.0" encoding="utf-8"?>
<!-- Generator: Adobe Illustrator 21.0.0, SVG Export Plug-In . SVG Version: 6.00 Build 0)  -->
<svg version="1.1" id="Capa_1" xmlns="http://www.w3.org/2000/svg" xmlns:xlink="http://www.w3.org/1999/xlink" x="0px" y="0px"
	 viewBox="0 0 64 64" style="enable-background:new 0 0 64 64;" xml:space="preserve">
<path d="M32,4C16.5,4,4,16.5,4,32c0,15.5,12.5,28,28,28s28-12.5,28-28C60,16.5,47.5,4,32,4z M41.6,46.1h-13v-4h13c3.3,0,6-2.7,6-6
	s-2.7-6-6-6H19l5.3,5.3l-2.8,2.8l-9.9-9.9l9.9-9.9l2.8,2.8l-4.8,4.8h22.2c5.5,0,10,4.5,10,10S47.1,46.1,41.6,46.1z"/>
</svg>
