<?xml version="1.0" encoding="utf-8"?>
<!-- Generator: Adobe Illustrator 21.0.0, SVG Export Plug-In . SVG Version: 6.00 Build 0)  -->
<svg version="1.1" id="Capa_1" xmlns="http://www.w3.org/2000/svg" xmlns:xlink="http://www.w3.org/1999/xlink" x="0px" y="0px"
	 viewBox="0 0 64 64" style="enable-background:new 0 0 64 64;" xml:space="preserve">
<path d="M45,27c2.8,0,5,2.2,5,5c0,2.8-2.2,5-5,5H19c-2.8,0-5-2.2-5-5c0-2.8,2.2-5,5-5H45 M45,25H19c-3.9,0-7,3.1-7,7
	c0,3.9,3.1,7,7,7h26c3.9,0,7-3.1,7-7C52,28.1,48.9,25,45,25L45,25z"/>
<path d="M45,19c7.2,0,13,5.8,13,13c0,7.2-5.8,13-13,13H19c-7.2,0-13-5.8-13-13c0-7.2,5.8-13,13-13H45 M45,17H19c-8.3,0-15,6.8-15,15
	v0c0,8.2,6.8,15,15,15h26c8.3,0,15-6.8,15-15v0C60,23.8,53.3,17,45,17L45,17z"/>
</svg>
