<?xml version="1.0" encoding="utf-8"?>
<!-- Generator: Adobe Illustrator 21.0.0, SVG Export Plug-In . SVG Version: 6.00 Build 0)  -->
<svg version="1.1" id="Capa_1" xmlns="http://www.w3.org/2000/svg" xmlns:xlink="http://www.w3.org/1999/xlink" x="0px" y="0px"
	 viewBox="0 0 64 64" style="enable-background:new 0 0 64 64;" xml:space="preserve">
<path d="M22,54.4c0,0.2,0,0.4,0,0.6c0,3.3,4.5,6,10,6s10-2.7,10-6c0-0.2,0-0.4,0-0.6c-3.1,0.7-6.5,1.1-10,1.1S25.2,55.1,22,54.4z"/>
<polygon points="32,16 19,5.1 22.7,2 32,9.8 41.3,2 45,5.1 "/>
<path d="M45.2,14.2l-3.8,3.2C50.5,19.7,57,25.4,57,32c0,8.7-11.2,15.8-25,15.8S7,40.7,7,32c0-6.6,6.5-12.3,15.6-14.6l-3.8-3.2
	C9.4,17.5,3,24.2,3,32c0,11,13,20,29,20c16,0,29-9,29-20C61,24.2,54.6,17.5,45.2,14.2z"/>
<path d="M32,19.4c-11.8,0-21.7,5.8-21.7,12.6c0,6.8,10,12.6,21.7,12.6S53.7,38.8,53.7,32C53.7,25.2,43.8,19.4,32,19.4z M38.1,40.6
	H26.9V23.5h4.6v13.4h6.6V40.6z"/>
</svg>
