<?xml version="1.0" encoding="utf-8"?>
<!-- Generator: Adobe Illustrator 21.0.0, SVG Export Plug-In . SVG Version: 6.00 Build 0)  -->
<svg version="1.1" id="Capa_1" xmlns="http://www.w3.org/2000/svg" xmlns:xlink="http://www.w3.org/1999/xlink" x="0px" y="0px"
	 viewBox="0 0 64 64" style="enable-background:new 0 0 64 64;" xml:space="preserve">
<path d="M54.6,13.1c-2.5-3.7-6.2-5.3-8.2-6c-4.2-0.7-10.2-1.3-17.4-1c-9.3,0.4-14,0.6-17.4,4C6.6,15,7,23.4,7.4,32
	c0.4,8.3,0.7,15.8,6,21c4.5,4.4,10.3,4.8,14.7,5c8.2,0.4,14.3-2.7,16.5-4c2.6-1.5,9.2-5.4,11.6-13c0.6-1.9,0.6-4.6,0.7-10
	C56.9,21.4,56.9,16.5,54.6,13.1z M30.8,39.9H18.5v-20h4.2v16.5h8.1V39.9z M47.5,23.4H42v16.5h-4.2V23.4h-5.4v-3.5h15.1V23.4z"/>
</svg>
