<?xml version="1.0" encoding="utf-8"?>
<!-- Generator: Adobe Illustrator 21.0.0, SVG Export Plug-In . SVG Version: 6.00 Build 0)  -->
<svg version="1.1" id="Capa_1" xmlns="http://www.w3.org/2000/svg" xmlns:xlink="http://www.w3.org/1999/xlink" x="0px" y="0px"
	 viewBox="0 0 64 64" style="enable-background:new 0 0 64 64;" xml:space="preserve">
<g>
	<path d="M23.7,26c-0.7-0.4-1.7-0.6-3-0.6h-1.3v5.4h1.4c1.3,0,2.3-0.2,3-0.7c0.6-0.4,1-1.1,1-2.1C24.7,27.1,24.3,26.4,23.7,26z"/>
	<path d="M45.6,13H9.7C4.9,13,1,16.9,1,21.7v20.6C1,47.1,4.9,51,9.7,51h35.8C55.2,51,63,43.2,63,33.6v-3.1C63,20.8,55.2,13,45.6,13z
		 M26.4,41.9l-4.8-7.7h-2.3v7.7h-4.2v-20H21c2.7,0,4.7,0.5,6,1.5c1.3,1,2,2.5,2,4.5c0,1.2-0.3,2.2-1,3.1s-1.6,1.6-2.7,2.2
		c3,4.5,5,7.4,5.9,8.7H26.4z M49.1,41c-1.3,0.4-2.5,0.7-3.6,0.9s-2.3,0.3-3.5,0.3c-3,0-5.3-0.9-6.9-2.7c-1.6-1.8-2.4-4.3-2.4-7.6
		c0-3.2,0.9-5.7,2.8-7.5s4.4-2.7,7.7-2.7c2.1,0,4,0.4,5.9,1.2l-1.4,3.4c-1.5-0.7-3-1.1-4.6-1.1c-1.8,0-3.3,0.6-4.4,1.8
		s-1.7,2.9-1.7,5c0,2.2,0.4,3.8,1.3,5c0.9,1.1,2.2,1.7,3.9,1.7c0.9,0,1.8-0.1,2.7-0.3v-4.2h-3.8v-3.5h7.9V41z"/>
</g>
</svg>
