<?xml version="1.0" encoding="utf-8"?>
<!-- Generator: Adobe Illustrator 21.0.0, SVG Export Plug-In . SVG Version: 6.00 Build 0)  -->
<svg version="1.1" id="Capa_1" xmlns="http://www.w3.org/2000/svg" xmlns:xlink="http://www.w3.org/1999/xlink" x="0px" y="0px"
	 viewBox="0 0 64 64" style="enable-background:new 0 0 64 64;" xml:space="preserve">
<g>
	<path d="M25.7,24c-0.7-0.4-1.7-0.6-3-0.6h-1.3v5.4h1.4c1.3,0,2.3-0.2,3-0.7c0.6-0.4,1-1.1,1-2.1C26.7,25.1,26.4,24.4,25.7,24z"/>
	<path d="M52.5,10.1c-3.4-3.4-8.1-3.6-17.4-4c-7.2-0.3-13.2,0.3-17.4,1c-2.1,0.7-5.7,2.3-8.2,6C7.1,16.5,7.1,21.4,7.2,31
		c0,5.4,0.1,8.1,0.7,10c2.4,7.6,9.1,11.5,11.6,13c2.2,1.3,8.2,4.4,16.5,4c4.3-0.2,10.1-0.6,14.7-5c5.3-5.2,5.6-12.7,6-21
		C57,23.4,57.4,15,52.5,10.1z M28.4,39.9l-4.8-7.7h-2.3v7.7h-4.2v-20H23c2.7,0,4.7,0.5,6,1.5c1.3,1,2,2.5,2,4.5c0,1.2-0.3,2.2-1,3.1
		s-1.6,1.6-2.7,2.2c3,4.5,5,7.4,5.9,8.7H28.4z M48.8,23.4h-5.4v16.5h-4.2V23.4h-5.4v-3.5h15.1V23.4z"/>
</g>
</svg>
