<?xml version="1.0" encoding="utf-8"?>
<!-- Generator: Adobe Illustrator 21.0.0, SVG Export Plug-In . SVG Version: 6.00 Build 0)  -->
<svg version="1.1" id="Capa_1" xmlns="http://www.w3.org/2000/svg" xmlns:xlink="http://www.w3.org/1999/xlink" x="0px" y="0px"
	 viewBox="0 0 64 64" style="enable-background:new 0 0 64 64;" xml:space="preserve">
<g>
	<path d="M18.5,39.9v-20h4.2v16.5h8.1v3.5H18.5z"/>
	<path d="M42,39.9h-4.2V23.4h-5.4v-3.5h15.1v3.5H42V39.9z"/>
</g>
<path d="M32.7,8c4.4,0,8.8,0.3,13.2,1c3.1,1,5.4,2.8,7.1,5.2c1.9,2.8,2,7.2,1.9,16.8c0,5-0.1,7.8-0.6,9.4
	c-2.2,6.9-8.4,10.5-10.8,11.8c-2.4,1.4-7.4,3.8-13.9,3.8c-0.5,0-1,0-1.5,0c-4.2-0.2-9.4-0.5-13.4-4.4c-4.7-4.6-5-11.6-5.4-19.6
	C9,23.6,8.6,15.8,13,11.5c2.8-2.8,6.9-3,15.9-3.4l0.1,0C30.3,8,31.5,8,32.7,8 M32.7,6c-1.2,0-2.5,0-3.8,0.1c-9.3,0.4-14,0.6-17.4,4
	C6.6,15,7,23.4,7.4,32c0.4,8.3,0.7,15.8,6,21c4.5,4.4,10.3,4.8,14.7,5c0.5,0,1.1,0,1.6,0c7.4,0,12.9-2.9,14.9-4
	c2.6-1.5,9.2-5.4,11.6-13c0.6-1.9,0.6-4.6,0.7-10c0.1-9.6,0.1-14.5-2.2-17.9c-2.5-3.7-6.2-5.3-8.2-6C42.9,6.5,38.3,6,32.7,6L32.7,6z
	"/>
</svg>
