<?xml version="1.0" encoding="utf-8"?>
<!-- Generator: Adobe Illustrator 21.0.0, SVG Export Plug-In . SVG Version: 6.00 Build 0)  -->
<svg version="1.1" id="Capa_1" xmlns="http://www.w3.org/2000/svg" xmlns:xlink="http://www.w3.org/1999/xlink" x="0px" y="0px"
	 viewBox="0 0 64 64" style="enable-background:new 0 0 64 64;" xml:space="preserve">
<path d="M54.3,13H18.4C8.8,13,1,20.8,1,30.4v3.1C1,43.2,8.8,51,18.4,51h35.8c4.8,0,8.7-3.9,8.7-8.7V21.7C63,16.9,59.1,13,54.3,13z
	 M28.8,41.9H16.5v-20h4.2v16.5h8.1V41.9z M47.8,41c-1.3,0.4-2.5,0.7-3.6,0.9s-2.3,0.3-3.5,0.3c-3,0-5.3-0.9-6.9-2.7
	c-1.6-1.8-2.4-4.3-2.4-7.6c0-3.2,0.9-5.7,2.8-7.5s4.4-2.7,7.7-2.7c2.1,0,4,0.4,5.9,1.2l-1.4,3.4c-1.5-0.7-3-1.1-4.6-1.1
	c-1.8,0-3.3,0.6-4.4,1.8s-1.7,2.9-1.7,5c0,2.2,0.4,3.8,1.3,5c0.9,1.1,2.2,1.7,3.9,1.7c0.9,0,1.8-0.1,2.7-0.3v-4.2h-3.8v-3.5h7.9V41z
	"/>
</svg>
